<svg xmlns="http://www.w3.org/2000/svg" width="1094.898" height="526.41" viewBox="0 0 1094.898 526.41">
  <g id="Group_1" data-name="Group 1" transform="translate(-160.103 -842.766)">
    <path id="Path_1" data-name="Path 1" d="M858.385,924.022H669.756v-.009H663.58a38.1,38.1,0,0,0,0,75.005H782.3c-17.432,85.864-93.5,150.7-184.437,150.7-67.085,0-114.549-29.991-155.119-75.683a38.093,38.093,0,0,0-55.6,50.064c6.617,7.437,13.423,14.64,20.5,21.485,55.059,53.251,117.277,79.139,190.215,79.139,145.132,0,263.207-118.072,263.207-263.2A264.15,264.15,0,0,0,858.385,924.022Z" transform="translate(393.933 144.456)"/>
    <path id="Path_2" data-name="Path 2" d="M991.795,917.771h0a186.992,186.992,0,0,1,83.342,19.521,189.326,189.326,0,0,1,61.985,49.234,38.176,38.176,0,0,0,48.023-58.848h0a262.106,262.106,0,0,0-193.349-84.911c-52.917,0-100.187,13.637-143.179,41.453A309.9,309.9,0,0,0,801.579,921.9c-33.494,32.4-61.443,72.077-87.442,113-9.77,15.376-19.271,30.921-28.677,46.331q-7.53,12.338-15.165,24.738C641.66,1152.328,611.5,1198.051,575.8,1232a244.013,244.013,0,0,1-45.234,34.383c-32.23,18.787-67.249,27.785-107.257,27.785a186.991,186.991,0,0,1-83.339-19.521c-62.071-30.794-104.86-94.82-104.86-168.678,0-103.776,84.425-188.2,188.2-188.2,59.435,0,107.888,19.754,152.491,62.165,2.095,1.995,4.159,4.056,6.217,6.128A38.111,38.111,0,0,0,635.26,933.38c-52.5-52.9-118.875-90.615-211.953-90.615-145.132,0-263.2,118.072-263.2,263.207,0,116.016,75.455,214.731,179.865,249.672a262.105,262.105,0,0,0,83.339,13.531h0c55.093,0,100.826-13.223,139.87-34.977,64.663-36.025,110.963-95.47,150.96-157.161,12.256-18.9,23.927-38.019,35.347-56.731q4.409-7.221,8.764-14.337c29.849-48.737,58.482-93.692,92.5-127.431C888.255,941.345,932.31,917.771,991.795,917.771Z" transform="translate(0 0)"/>
  </g>
</svg>
